<svg width="568" height="568" viewBox="0 0 889 768" fill="none" xmlns="http://www.w3.org/2000/svg">
<g clip-path="url(#clip0_12_3)">
<path d="M673.257 603.773L643.233 620.839L659.806 603.773H606.354V562.578C663.586 517.628 700.447 447.178 700.447 367.984C700.447 232.216 621.992 122.162 458.545 122.162C368.905 122.162 305.921 153.72 266.734 203.873V230.105L260.299 212.575C230.698 254.928 216.643 309.028 216.643 367.984C216.643 447.206 253.517 517.671 310.776 562.607V603.773H283.721L287.701 626.834L270.075 603.773H199.645V714.142H423.241V530.671H410.06C372.977 505.129 347.401 451.191 347.401 388.768C347.401 301.691 397.167 231.098 458.545 231.098C509.931 231.098 553.17 280.582 565.889 347.789L582.155 321.043L568.312 363.929C569.23 372.17 569.69 380.465 569.689 388.768C569.689 451.191 544.113 505.129 507.03 530.671H493.902V603.773H493.85V714.142H717.445V603.773H673.257Z" fill="#5B55A5"/>
<path d="M485.537 99.1193C480.354 120.12 462.602 133.127 462.602 133.127C462.602 133.127 453.254 112.084 458.436 91.0828C463.619 70.0817 481.37 57.0752 481.37 57.0752C481.37 57.0752 490.719 78.1182 485.537 99.1193Z" fill="#ABE5FD"/>
<path d="M438.389 99.1193C443.572 120.12 461.324 133.127 461.324 133.127C461.324 133.127 470.673 112.084 465.49 91.0828C460.307 70.0817 442.556 57.0752 442.556 57.0752C442.556 57.0752 433.207 78.1182 438.389 99.1193Z" fill="#ABE5FD"/>
<path d="M446.005 94.6059C460.226 109.781 461.963 133.11 461.963 133.11C461.963 133.11 440.643 131.834 426.422 116.658C412.2 101.483 410.463 78.1543 410.463 78.1543C410.463 78.1543 431.784 79.4304 446.005 94.6059Z" fill="#3F3D56"/>
<path d="M477.921 94.6059C463.7 109.781 461.963 133.11 461.963 133.11C461.963 133.11 483.283 131.834 497.504 116.658C511.725 101.483 513.462 78.1543 513.462 78.1543C513.462 78.1543 492.142 79.4304 477.921 94.6059Z" fill="#3F3D56"/>
<path d="M380.893 486.919C395.752 501.341 398.492 524.554 398.492 524.554C398.492 524.554 377.141 524.383 362.282 509.961C347.422 495.539 344.682 472.326 344.682 472.326C344.682 472.326 366.033 472.497 380.893 486.919Z" fill="#ABE5FD"/>
<path d="M348.606 359.569C356.772 379.398 376.186 389.142 376.186 389.142C376.186 389.142 382.36 366.736 374.194 346.907C366.029 327.077 346.615 317.334 346.615 317.334C346.615 317.334 340.44 339.74 348.606 359.569Z" fill="#ABE5FD"/>
<path d="M355.47 353.784C371.713 366.285 376.815 389.013 376.815 389.013C376.815 389.013 355.581 391.473 339.338 378.972C323.095 366.471 317.993 343.743 317.993 343.743C317.993 343.743 339.226 341.283 355.47 353.784Z" fill="#3F3D56"/>
<path d="M408.517 408.006C394.296 423.182 392.559 446.51 392.559 446.51C392.559 446.51 413.879 445.234 428.1 430.058C442.322 414.883 444.059 391.554 444.059 391.554C444.059 391.554 422.738 392.831 408.517 408.006Z" fill="#3F3D56"/>
<path d="M401.157 575.299C382.305 582.101 371.412 602.231 371.412 602.231C371.412 602.231 391.083 611.334 409.935 604.532C428.786 597.73 439.68 577.6 439.68 577.6C439.68 577.6 420.009 568.498 401.157 575.299Z" fill="#3F3D56"/>
<path d="M261.032 708.051L259.22 707.834C260.196 697.199 264.035 687.123 270.248 678.885C279.45 667.062 293.017 661.132 306.137 655.399C308.525 654.355 310.906 653.314 313.25 652.244C322.834 648.009 331.985 642.68 340.551 636.345C372.122 612.429 392.912 568.853 396.164 519.779C398.755 480.682 391.09 437.229 372.729 386.937L374.422 386.196C392.887 436.775 400.594 480.517 397.983 519.923C394.691 569.596 373.609 613.733 341.587 637.988C332.917 644.404 323.654 649.8 313.952 654.088C311.598 655.164 309.209 656.208 306.812 657.255C293.898 662.9 280.544 668.736 271.635 680.183C265.659 688.114 261.968 697.814 261.032 708.051V708.051Z" fill="#3F3D56"/>
<path d="M318.035 331.325C327.601 331.325 335.355 322.825 335.355 312.338C335.355 301.852 327.601 293.351 318.035 293.351C308.469 293.351 300.714 301.852 300.714 312.338C300.714 322.825 308.469 331.325 318.035 331.325Z" fill="#3F3D56"/>
<path d="M497.58 377.993C512.439 392.416 515.18 415.628 515.18 415.628C515.18 415.628 493.828 415.457 478.969 401.035C464.11 386.613 461.37 363.4 461.37 363.4C461.37 363.4 482.721 363.571 497.58 377.993Z" fill="#ABE5FD"/>
<path d="M465.294 250.643C473.459 270.473 492.873 280.216 492.873 280.216C492.873 280.216 499.048 257.81 490.882 237.981C482.716 218.152 463.302 208.408 463.302 208.408C463.302 208.408 457.128 230.814 465.294 250.643Z" fill="#ABE5FD"/>
<path d="M472.157 244.859C488.4 257.36 493.502 280.088 493.502 280.088C493.502 280.088 472.268 282.548 456.025 270.047C439.782 257.546 434.68 234.818 434.68 234.818C434.68 234.818 455.913 232.358 472.157 244.859Z" fill="#3F3D56"/>
<path d="M525.205 299.081C510.984 314.256 509.247 337.584 509.247 337.584C509.247 337.584 530.567 336.308 544.788 321.133C559.009 305.957 560.746 282.629 560.746 282.629C560.746 282.629 539.426 283.905 525.205 299.081Z" fill="#3F3D56"/>
<path d="M517.845 466.374C498.993 473.175 488.099 493.306 488.099 493.306C488.099 493.306 507.77 502.408 526.622 495.606C545.474 488.805 556.368 468.674 556.368 468.674C556.368 468.674 536.697 459.572 517.845 466.374Z" fill="#3F3D56"/>
<path d="M377.72 599.125L375.907 598.908C376.884 588.273 380.723 578.197 386.936 569.959C396.138 558.136 409.705 552.208 422.824 546.473C425.213 545.429 427.593 544.389 429.938 543.318C439.522 539.083 448.673 533.754 457.239 527.419C488.81 503.503 509.599 459.928 512.852 410.853C515.443 371.756 507.777 328.304 489.416 278.013L491.109 277.27C509.575 327.849 517.282 371.591 514.67 410.997C511.379 460.67 490.296 504.806 458.275 529.062C449.604 535.478 440.341 540.875 430.639 545.163C428.286 546.238 425.897 547.282 423.5 548.329C410.586 553.974 397.232 559.81 388.323 571.257C382.346 579.189 378.655 588.889 377.72 599.125Z" fill="#3F3D56"/>
<path d="M434.722 222.4C444.288 222.4 452.043 213.899 452.043 203.413C452.043 192.927 444.288 184.426 434.722 184.426C425.156 184.426 417.401 192.927 417.401 203.413C417.401 213.899 425.156 222.4 434.722 222.4Z" fill="#3F3D56"/>
<path d="M168.259 427.307C188.101 427.773 203.886 443.536 203.886 443.536C203.886 443.536 187.499 458.542 167.657 458.075C147.815 457.608 132.031 441.846 132.031 441.846C132.031 441.846 148.417 426.84 168.259 427.307Z" fill="#ABE5FD"/>
<path d="M68.503 353.059C86.4296 362.395 106.986 356.064 106.986 356.064C106.986 356.064 98.4769 334.597 80.5504 325.261C62.6239 315.925 42.0679 322.256 42.0679 322.256C42.0679 322.256 50.5765 343.723 68.503 353.059Z" fill="#ABE5FD"/>
<path d="M70.3249 343.782C90.0892 341.802 107.389 355.521 107.389 355.521C107.389 355.521 92.6443 372.45 72.88 374.43C53.1156 376.41 35.8159 362.691 35.8159 362.691C35.8159 362.691 50.5606 345.762 70.3249 343.782Z" fill="#3F3D56"/>
<path d="M142.775 347.533C140.881 369.189 153.318 388.214 153.318 388.214C153.318 388.214 168.827 372.127 170.722 350.47C172.616 328.814 160.178 309.789 160.178 309.789C160.178 309.789 144.669 325.876 142.775 347.533Z" fill="#3F3D56"/>
<path d="M235.855 480.352C225.489 498.905 229.055 521.982 229.055 521.982C229.055 521.982 249.429 514.98 259.796 496.427C270.162 477.875 266.596 454.798 266.596 454.798C266.596 454.798 246.222 461.8 235.855 480.352Z" fill="#3F3D56"/>
<path d="M205.781 682.063C200.252 673.26 197.236 662.853 197.115 652.166C197.159 636.622 204.01 622.481 210.635 608.806C211.841 606.317 213.042 603.837 214.198 601.36C219.01 591.336 222.846 580.784 225.641 569.879C235.614 529.256 225.764 481.28 199.292 441.544C178.205 409.887 146.723 382.179 103.049 356.834L103.902 355.068C147.826 380.557 179.511 408.458 200.765 440.365C227.558 480.586 237.516 529.196 227.402 570.398C224.573 581.438 220.691 592.121 215.821 602.269C214.661 604.757 213.455 607.245 212.245 609.743C205.724 623.203 198.981 637.122 198.938 652.172C199.059 662.459 201.967 672.474 207.292 680.945L205.781 682.063Z" fill="#3F3D56"/>
<path d="M17.3213 357.694C26.8873 357.694 34.6421 349.193 34.6421 338.707C34.6421 328.221 26.8873 319.72 17.3213 319.72C7.75527 319.72 0.000488281 328.221 0.000488281 338.707C0.000488281 349.193 7.75527 357.694 17.3213 357.694Z" fill="#3F3D56"/>
<path d="M165.394 117.518C145.552 117.985 129.768 133.747 129.768 133.747C129.768 133.747 146.154 148.753 165.996 148.286C185.838 147.82 201.622 132.057 201.622 132.057C201.622 132.057 185.236 117.051 165.394 117.518Z" fill="#ABE5FD"/>
<path d="M265.15 43.2706C247.223 52.6064 226.667 46.2756 226.667 46.2756C226.667 46.2756 235.176 24.8085 253.103 15.4726C271.029 6.13683 291.585 12.4675 291.585 12.4675C291.585 12.4675 283.077 33.9347 265.15 43.2706Z" fill="#ABE5FD"/>
<path d="M263.328 33.9928C243.563 32.0128 226.264 45.7316 226.264 45.7316C226.264 45.7316 241.008 62.6606 260.773 64.6406C280.537 66.6206 297.837 52.9018 297.837 52.9018C297.837 52.9018 283.092 35.9728 263.328 33.9928Z" fill="#3F3D56"/>
<path d="M190.878 37.744C192.772 59.4007 180.335 78.4256 180.335 78.4256C180.335 78.4256 164.826 62.3382 162.931 40.6816C161.037 19.025 173.474 0 173.474 0C173.474 0 188.983 16.0874 190.878 37.744Z" fill="#3F3D56"/>
<path d="M97.7974 170.564C108.164 189.116 104.597 212.193 104.597 212.193C104.597 212.193 84.2234 205.191 73.8569 186.639C63.4904 168.086 67.057 145.009 67.057 145.009C67.057 145.009 87.4309 152.011 97.7974 170.564Z" fill="#3F3D56"/>
<path d="M127.872 372.275L126.362 371.155C131.687 362.684 134.594 352.669 134.715 342.382C134.673 327.335 127.93 313.417 121.41 299.958C120.199 297.459 118.993 294.969 117.833 292.48C112.962 282.332 109.08 271.65 106.251 260.61C96.1371 219.408 106.095 170.797 132.888 130.576C154.143 98.6692 185.827 70.7683 229.751 45.2788L230.604 47.0452C186.931 72.3892 155.449 100.098 134.361 131.755C107.89 171.492 98.04 219.468 108.012 260.09C110.808 270.995 114.643 281.547 119.456 291.571C120.612 294.05 121.814 296.531 123.02 299.02C129.644 312.695 136.495 326.834 136.538 342.377C136.418 353.064 133.401 363.471 127.872 372.275V372.275Z" fill="#3F3D56"/>
<path d="M316.332 47.9048C325.898 47.9048 333.653 39.404 333.653 28.9177C333.653 18.4315 325.898 9.93066 316.332 9.93066C306.766 9.93066 299.011 18.4315 299.011 28.9177C299.011 39.404 306.766 47.9048 316.332 47.9048Z" fill="#3F3D56"/>
<path d="M888.829 713.451H54.6973V715.45H888.829V713.451Z" fill="#3F3D56"/>
<path d="M777.947 405.775C777.947 405.775 861.816 469.731 846.319 498.711C830.821 527.692 798.915 592.647 798.915 592.647L776.124 577.657L785.24 550.676C785.24 550.676 789.798 512.702 808.942 497.712C808.942 497.712 807.119 485.72 788.887 478.725C770.654 471.73 733.278 436.754 733.278 436.754L777.947 405.775Z" fill="#FFC5C5"/>
<path d="M804.84 586.152L774.459 567.07L753.789 599.143C753.789 599.143 723.706 609.136 718.236 628.123C718.236 628.123 751.966 718.062 763.817 712.066C775.668 706.07 768.375 677.09 768.375 677.09L788.431 625.125L804.84 586.152Z" fill="#2F2E41"/>
<path d="M673.111 438.752L725.985 529.69C725.985 529.69 741.482 605.638 768.831 639.615L798.914 629.622L768.831 552.674C768.831 552.674 775.212 531.689 756.98 498.711C738.747 465.734 731.455 426.76 731.455 426.76L673.111 438.752Z" fill="#FFC5C5"/>
<path d="M800.282 621.128L763.817 642.114L798.458 683.086C798.458 683.086 792.077 691.08 791.166 712.066C790.254 733.052 791.166 739.047 791.166 739.047C791.166 739.047 879.593 779.02 887.797 765.03C896.002 751.039 859.537 729.054 859.537 729.054L824.895 672.093L800.282 621.128Z" fill="#2F2E41"/>
<path d="M719.604 161.941C737.225 161.941 751.51 146.282 751.51 126.965C751.51 107.648 737.225 91.9888 719.604 91.9888C701.982 91.9888 687.697 107.648 687.697 126.965C687.697 146.282 701.982 161.941 719.604 161.941Z" fill="#FFC5C5"/>
<path d="M699.092 138.457L685.418 170.435L739.204 261.373L737.38 219.401L726.441 192.42L716.413 182.427L724.618 153.446L699.092 138.457Z" fill="#FFC5C5"/>
<path d="M692.255 178.929L685.874 170.935C685.874 170.935 659.893 158.443 650.776 188.423C647.196 200.197 645.092 214.052 643.857 226.538C641.885 246.784 643.46 267.257 648.497 286.856C648.497 286.856 633.911 340.819 638.469 375.795L635.735 393.783C635.735 393.783 600.181 421.764 620.237 429.758C640.293 437.753 647.586 399.779 647.586 399.779L668.553 307.842L667.641 267.869L676.758 277.862L692.255 178.929Z" fill="#FFC5C5"/>
<path d="M728.264 194.419C728.264 194.419 746.04 205.911 747.864 214.905C749.687 223.899 766.096 305.843 766.096 305.843L794.356 395.782C794.356 395.782 839.026 442.75 814.412 446.747C789.798 450.744 780.682 401.778 780.682 401.778L747.864 329.827L740.571 218.902L728.264 194.419Z" fill="#FFC5C5"/>
<path d="M752.061 119.196C752.061 119.196 770.528 75.0609 722.266 75.1083C722.266 75.1083 692.657 58.0572 670.109 97.6005L646.84 139.177L652.785 137.882L653.54 144.369L661.125 149.471L666.831 143.007L665.887 152.902L731.247 183.33C731.247 183.33 706.606 153.417 716.111 118.15L719.97 126.783L752.061 119.196Z" fill="#2F2E41"/>
<path d="M756.068 264.871C756.068 264.871 761.538 248.882 757.891 242.886C754.245 236.89 727.808 190.421 727.808 190.421H725.073C725.073 190.421 737.836 237.889 733.278 244.884C733.278 244.884 691.799 170.435 684.506 170.435L687.697 176.931L667.728 271.68L675.573 303.731H748.796L756.068 264.871Z" fill="#ABE5FD"/>
<path d="M798.915 413.769L765.185 389.785C765.185 389.785 753.334 309.84 748.776 303.844L748.797 303.731H675.574L675.846 304.843C675.846 304.843 633.911 406.774 644.851 449.744C644.851 449.744 644.851 453.742 668.553 449.744C692.255 445.747 739.659 443.749 739.659 443.749C739.659 443.749 803.473 431.757 798.915 413.769Z" fill="#2F2E41"/>
</g>
<defs>
<clipPath id="clip0_12_3">
<rect width="889" height="768" fill="white"/>
</clipPath>
</defs>
</svg>
